HIERARCHY
ROOT Hips
{
	OFFSET 0.000000 0.000000 0.000000 
	CHANNELS 6 Xposition Yposition Zposition Zrotation Yrotation Xrotation
	JOINT LeftUpLeg
	{
		OFFSET 1.363060 -1.794630 0.839290 
		CHANNELS 3 Zrotation Yrotation Xrotation
		JOINT LeftLeg
		{
			OFFSET 2.448110 -6.726130 0.000000 
			CHANNELS 3 Zrotation Yrotation Xrotation
			JOINT LeftFoot
			{
				OFFSET 2.562200 -7.039590 0.000000 
				CHANNELS 3 Zrotation Yrotation Xrotation
				JOINT LeftToeBase
				{
					OFFSET 0.157640 -0.433110 2.322550 
					CHANNELS 3 Zrotation Yrotation Xrotation
					End Site
					{
						OFFSET 0.000000 0.000000 0.000000 
					}
				}
			}
		}
	}
	JOINT RightUpLeg
	{
		OFFSET -1.305520 -1.794630 0.839290 
		CHANNELS 3 Zrotation Yrotation Xrotation
		JOINT RightLeg
		{
			OFFSET -2.542530 -6.985550 0.000000 
			CHANNELS 3 Zrotation Yrotation Xrotation
			JOINT RightFoot
			{
				OFFSET -2.568260 -7.056230 0.000000 
				CHANNELS 3 Zrotation Yrotation Xrotation
				JOINT RightToeBase
				{
					OFFSET -0.164730 -0.452590 2.363150 
					CHANNELS 3 Zrotation Yrotation Xrotation
					End Site
					{
						OFFSET 0.000000 0.000000 0.000000 
					}
				}
			}
		}
	}
	JOINT Spine
	{
		OFFSET 0.028270 2.035590 -0.193380 
		CHANNELS 3 Zrotation Yrotation Xrotation
		JOINT Spine1
		{
			OFFSET 0.056720 2.048850 -0.042750 
			CHANNELS 3 Zrotation Yrotation Xrotation
			JOINT Neck1
			{
				OFFSET -0.054170 1.746240 0.172020 
				CHANNELS 3 Zrotation Yrotation Xrotation
				JOINT Head
				{
					OFFSET 0.104070 1.761360 -0.123970 
					CHANNELS 3 Zrotation Yrotation Xrotation
					End Site
					{
						OFFSET 0.000000 0.000000 0.000000 
					}
				}
			}
			JOINT LeftArm
			{
				OFFSET 3.362410 1.200890 -0.311210 
				CHANNELS 3 Zrotation Yrotation Xrotation
				JOINT LeftForeArm
				{
					OFFSET 4.983000 -0.000000 -0.000000 
					CHANNELS 3 Zrotation Yrotation Xrotation
					JOINT LeftHand
					{
						OFFSET 3.483560 -0.000000 -0.000000 
						CHANNELS 3 Zrotation Yrotation Xrotation
						JOINT LeftHandIndex1
						{
							OFFSET 0.715260 -0.000000 -0.000000 
							CHANNELS 3 Zrotation Yrotation Xrotation
							End Site
							{
								OFFSET 0.000000 0.000000 0.000000 
							}
						}
					}
				}
			}
			JOINT RightArm
			{
				OFFSET -3.136600 1.374050 -0.404650 
				CHANNELS 3 Zrotation Yrotation Xrotation
				JOINT RightForeArm
				{
					OFFSET -5.241900 -0.000000 -0.000000 
					CHANNELS 3 Zrotation Yrotation Xrotation
					JOINT RightHand
					{
						OFFSET -3.444170 -0.000000 -0.000000 
						CHANNELS 3 Zrotation Yrotation Xrotation
						JOINT RightHandIndex1
						{
							OFFSET -0.622530 -0.000000 -0.000000 
							CHANNELS 3 Zrotation Yrotation Xrotation
							End Site
							{
								OFFSET 0.000000 0.000000 0.000000 
							}
						}
					}
				}
			}
		}
	}
}
MOTION
Frames: 15
Frame Time: 0.041667
25.616511 17.610349 -1.378489 18.232315 -87.931767 -11.290405 -24.968004 -9.227090 -8.902378 1.134474 9.746195 28.862808 4.520604 -6.641913 3.172124 0.312800 3.595400 9.941100 29.873798 7.523242 -10.100362 -2.178587 -9.976452 30.399918 -0.080462 -4.164630 -14.274338 -0.368700 3.900400 -10.796500 0.603892 2.055007 -4.571955 3.510268 1.620837 -7.791896 8.574520 -7.104775 6.910262 5.716000 -3.633100 3.463000 -102.910672 7.574534 -3.802532 22.242159 -35.046584 -9.172220 2.260677 4.613512 16.077942 -7.125000 0.000000 0.000000 90.214851 -1.908890 -12.433759 -4.881906 19.085412 -4.135135 -1.604741 3.945665 -0.365821 7.125000 0.000000 0.000000 
25.610207 17.624506 -1.379816 17.355282 -87.932189 -10.400824 -25.018391 -8.734805 -9.530784 1.203270 9.912508 29.291063 4.302150 -6.032752 3.052966 0.084500 1.875000 5.160400 29.957252 7.342372 -9.893018 -2.108855 -9.832209 29.988109 -0.034575 -4.273446 -14.060100 -0.400700 4.063900 -11.256400 0.595495 2.082201 -4.555739 3.450199 1.623266 -7.685946 8.600527 -7.116286 6.889390 5.727800 -3.634900 3.454000 -102.847907 7.534689 -3.763789 22.282002 -35.075520 -9.191803 2.250653 4.610645 16.121412 -7.125000 0.000000 0.000000 90.271247 -1.873538 -12.471810 -4.973866 19.180850 -4.137927 -1.597568 3.932739 -0.391963 7.125000 0.000000 0.000000 
25.604567 17.637335 -1.381917 17.175360 -87.946773 -10.232508 -25.112064 -8.235801 -10.124569 1.274785 10.076923 29.717531 4.094105 -5.456698 2.867962 0.000300 0.116500 0.320000 30.006531 7.206469 -9.645784 -2.041308 -9.686541 29.577982 -0.010216 -4.327161 -13.932772 -0.410700 4.113700 -11.396600 0.588738 2.097267 -4.540077 3.426304 1.625773 -7.605097 8.650515 -7.107003 6.862391 5.760000 -3.627400 3.439600 -102.829062 7.457898 -3.854048 22.290644 -35.068643 -9.196222 2.254382 4.602943 16.244479 -7.125000 0.000000 0.000000 90.318132 -1.856193 -12.471315 -5.038442 19.254987 -4.143385 -1.601930 3.923891 -0.361075 7.125000 0.000000 0.000000 
25.601027 17.649058 -1.384903 17.234527 -87.945117 -10.277227 -25.228606 -7.823337 -10.761182 1.355747 10.261786 30.193701 3.875332 -4.856843 2.619234 0.066200 -1.660400 -4.568100 30.041715 7.113174 -9.374359 -1.957397 -9.509949 29.073610 0.027744 -4.425364 -13.779428 -0.377400 3.945300 -10.923000 0.572113 2.104213 -4.537748 3.348366 1.620824 -7.581379 8.683960 -7.096420 6.837628 5.771400 -3.619300 3.420500 -102.723296 7.417112 -3.890004 22.065821 -34.836960 -9.077229 2.259534 4.572881 16.081956 -7.125000 0.000000 0.000000 90.414457 -1.851741 -12.512856 -5.085059 19.315150 -4.146674 -1.605788 3.920986 -0.280192 7.125000 0.000000 0.000000 
25.593286 17.659786 -1.390765 17.550191 -87.994097 -10.686432 -25.342159 -7.275817 -11.237929 1.425747 10.405814 30.581662 3.665723 -4.295551 2.386116 0.279200 -3.398400 -9.389800 30.101697 7.023133 -8.983160 -1.888968 -9.350517 28.646370 0.059716 -4.506006 -13.641308 -0.352000 3.811700 -10.547400 0.553468 2.147915 -4.525073 3.280209 1.636109 -7.563881 8.712005 -7.099507 6.817018 5.773000 -3.618500 3.398800 -102.593721 7.405246 -4.039771 21.643726 -34.469699 -8.949710 2.272912 4.677004 15.569039 -7.125000 0.000000 0.000000 90.559973 -1.901390 -12.565552 -5.202085 19.455104 -4.158164 -1.595154 3.914149 -0.197098 7.125000 0.000000 0.000000 
25.577028 17.681353 -1.400055 18.244109 -88.113370 -11.607540 -25.572256 -5.894035 -12.009940 1.488213 10.539844 30.935153 3.287586 -3.327240 2.233565 1.048200 -6.510600 -18.273500 30.188858 6.899618 -8.424139 -1.833672 -9.199454 28.278399 0.069159 -4.525200 -13.586974 -0.361500 3.862400 -10.689900 0.538055 2.224458 -4.484633 3.282074 1.671449 -7.468327 8.777447 -7.113920 6.810795 5.803700 -3.622600 3.393000 -102.583434 7.442228 -3.980969 21.768135 -34.516832 -8.894551 2.271835 4.488273 15.994313 -7.125000 0.000000 0.000000 90.688177 -1.921872 -12.646861 -5.312143 19.584565 -4.171653 -1.566301 3.917108 -0.068670 7.125000 0.000000 0.000000 
25.568843 17.680026 -1.406581 19.213001 -88.192846 -12.680441 -25.576547 -5.774766 -11.954949 1.530444 10.589296 31.114613 3.341532 -3.455472 2.128140 1.027400 -6.447800 -18.089300 30.213590 6.822608 -8.122398 -1.797404 -9.102803 28.030057 0.072411 -4.515652 -13.514581 -0.371300 3.913700 -10.833900 0.524558 2.272416 -4.447637 3.270587 1.690496 -7.338539 8.816829 -7.131145 6.776503 5.820400 -3.626500 3.373600 -102.511997 7.374096 -3.920739 21.820222 -34.561405 -8.915976 2.202355 4.517850 16.045777 -7.125000 0.000000 0.000000 90.760525 -1.867047 -12.687492 -5.360150 19.641435 -4.176489 -1.549129 3.921251 -0.015795 7.125000 0.000000 0.000000 
25.564862 17.679251 -1.410562 19.730994 -88.212264 -13.196302 -25.592220 -5.757917 -11.990168 1.551376 10.623139 31.215258 3.351943 -3.475369 2.053272 1.039100 -6.483200 -18.193100 30.218830 6.802539 -8.007304 -1.771392 -9.043638 27.864123 0.091329 -4.558259 -13.412698 -0.374200 3.929200 -10.877500 0.517559 2.262750 -4.422870 3.240196 1.677532 -7.214337 8.790947 -7.131985 6.735331 5.799600 -3.622100 3.347100 -102.435196 7.285964 -3.812997 21.872377 -34.609228 -8.931305 2.044012 4.593511 15.826939 -7.125000 0.000000 0.000000 90.780215 -1.752882 -12.725776 -5.335249 19.611117 -4.169290 -1.537561 3.931118 0.091720 7.125000 0.000000 0.000000 
25.561433 17.678920 -1.413216 20.061495 -88.216729 -13.528813 -25.608093 -5.778618 -11.946548 1.546830 10.616260 31.192782 3.334309 -3.429740 2.017570 1.049300 -6.513900 -18.282900 30.211179 6.780933 -7.978687 -1.769625 -9.039226 27.854830 0.101516 -4.591105 -13.392590 -0.381400 3.966200 -10.981500 0.513947 2.241410 -4.397907 3.216282 1.658377 -7.087506 8.758429 -7.127029 6.724518 5.775900 -3.614800 3.347100 -102.360427 7.197643 -3.801141 21.877246 -34.603768 -8.937254 2.039383 4.592637 15.788457 -7.125000 0.000000 0.000000 90.794422 -1.661256 -12.677913 -5.369457 19.652069 -4.169692 -1.533696 3.927845 0.172575 7.125000 0.000000 0.000000 
25.559000 17.679251 -1.414212 20.306915 -88.231244 -13.769027 -25.616416 -5.824529 -11.914486 1.544258 10.614180 31.183708 3.317032 -3.386119 2.001271 1.041600 -6.490600 -18.214700 30.191613 6.701249 -7.984678 -1.771392 -9.034982 27.845333 0.083121 -4.522909 -13.400471 -0.381400 3.966200 -10.981600 0.503371 2.268071 -4.374698 3.179272 1.663646 -6.986606 8.786293 -7.141162 6.663619 5.788100 -3.616300 3.316600 -102.258420 7.097641 -3.789501 21.808808 -34.528510 -8.921465 2.130721 4.549450 15.878205 -7.125000 0.000000 0.000000 90.829452 -1.586622 -12.681151 -5.417101 19.698153 -4.167327 -1.533733 3.919050 0.186103 7.125000 0.000000 0.000000 
25.556457 17.679915 -1.415318 19.783393 -88.229975 -13.218049 -25.583274 -5.855942 -11.926524 1.541589 10.613756 31.176372 3.307724 -3.362081 2.013166 1.038300 -6.480700 -18.185800 30.213257 6.636809 -8.018035 -1.772324 -9.033049 27.836416 0.051162 -4.415039 -13.450289 -0.376500 3.940800 -10.910200 0.489216 2.291503 -4.364052 3.094093 1.664105 -6.931864 8.861475 -7.138338 6.583697 5.832700 -3.611200 3.264400 -102.158952 7.039239 -3.729012 21.774567 -34.493951 -8.920335 2.119460 4.563968 15.842474 -7.125000 0.000000 0.000000 90.897600 -1.545608 -12.733240 -5.428365 19.713396 -4.161198 -1.528757 3.919245 0.214402 7.125000 0.000000 0.000000 
25.552364 17.679141 -1.417530 19.828298 -88.228681 -13.241770 -25.582038 -5.869608 -11.928141 1.540717 10.614271 31.173982 3.293672 -3.325122 1.990369 1.059400 -6.544100 -18.371400 30.212180 6.604374 -8.032882 -1.772439 -9.029740 27.825165 0.027726 -4.338184 -13.494606 -0.372300 3.919100 -10.849100 0.474090 2.272362 -4.360955 3.004245 1.643259 -6.880571 8.967482 -7.087653 6.604163 5.909700 -3.585900 3.281500 -102.088720 7.010411 -3.764538 21.770637 -34.480249 -8.930656 2.109675 4.577360 15.772517 -7.125000 0.000000 0.000000 90.963516 -1.530990 -12.682389 -5.425473 19.742461 -4.161325 -1.527186 3.923391 0.260374 7.125000 0.000000 0.000000 
25.547498 17.679141 -1.421290 21.171624 -88.267274 -14.578711 -25.632786 -5.824627 -11.915472 1.541827 10.614640 31.175842 3.281006 -3.291371 1.934897 1.086600 -6.625100 -18.609300 30.163796 6.627547 -8.015067 -1.771871 -9.025081 27.811945 0.021635 -4.317094 -13.501405 -0.366000 3.886000 -10.756000 0.457095 2.294878 -4.351438 2.985237 1.651675 -6.809172 9.074740 -7.069583 6.670343 5.987800 -3.577000 3.340900 -102.025698 6.946473 -3.841885 21.742812 -34.439293 -8.925991 2.130440 4.567716 15.833071 -7.125000 0.000000 0.000000 91.024288 -1.505991 -12.644675 -5.450164 19.790101 -4.167487 -1.530965 3.923229 0.247860 7.125000 0.000000 0.000000 
25.542632 17.680579 -1.424940 21.853675 -88.314681 -15.251458 -25.640208 -5.752316 -11.918379 1.541937 10.612645 31.172759 3.280033 -3.288982 1.936416 1.095500 -6.651300 -18.686300 30.164861 6.659885 -7.999472 -1.771358 -9.023812 27.806092 0.021601 -4.308692 -13.471752 -0.356000 3.833100 -10.607600 0.445469 2.350218 -4.334489 2.988742 1.677115 -6.721491 9.119539 -7.099646 6.689357 6.014100 -3.588900 3.371900 -101.968301 6.843798 -3.896520 21.695198 -34.382230 -8.908190 2.134214 4.561426 15.976203 -7.125000 0.000000 0.000000 91.075780 -1.442767 -12.703721 -5.485179 19.820795 -4.169503 -1.526259 3.922415 0.223234 7.125000 0.000000 0.000000 
25.537434 17.680468 -1.426488 21.426892 -88.336817 -14.816054 -25.605340 -5.724270 -11.910935 1.541854 10.610713 31.170432 3.276748 -3.281662 1.961598 1.094200 -6.647300 -18.674600 30.208880 6.642333 -7.982165 -1.770257 -9.018759 27.792786 0.014258 -4.272812 -13.444202 -0.356200 3.834400 -10.611100 0.441428 2.344026 -4.323563 2.947617 1.665701 -6.646356 9.126344 -7.085321 6.688847 6.023600 -3.579800 3.376900 -101.951931 6.783930 -3.936184 21.711702 -34.386285 -8.912958 2.122289 4.563469 15.939459 -7.125000 0.000000 0.000000 91.095157 -1.388478 -12.694431 -5.484113 19.829776 -4.166762 -1.508589 3.928504 0.258007 7.125000 0.000000 0.000000 
